<?xml version="1.0" encoding="UTF-8" standalone="no"?>
<!DOCTYPE svg PUBLIC "-//W3C//DTD SVG 1.1//EN" "http://www.w3.org/Graphics/SVG/1.1/DTD/svg11.dtd">
<svg width="100%" height="100%" viewBox="0 0 68 96" version="1.1" xmlns="http://www.w3.org/2000/svg" xmlns:xlink="http://www.w3.org/1999/xlink" xml:space="preserve" xmlns:serif="http://www.serif.com/" style="fill-rule:evenodd;clip-rule:evenodd;stroke-linejoin:round;stroke-miterlimit:2;">
    <g transform="matrix(-1.35839,0,0,1.35839,38.8632,94.4362)">
        <path d="M0,-69.03L-20.468,-69.03L-20.468,-58.796L-12.793,-51.145L-7.422,-51.145L6.662,-37.061L21.988,-37.061L21.988,-31.969L6.637,-31.969L-7.422,-17.91L-12.793,-17.91L-20.468,-10.234L-20.468,0L0,0L28.119,-28.118L28.119,-40.911L0,-69.03Z" style="fill:white;fill-rule:nonzero;"/>
    </g>
    <g transform="matrix(-1.35839,0,0,1.35839,38.8632,94.4362)">
        <path d="M0,-69.521C0.13,-69.521 0.255,-69.469 0.347,-69.377L28.466,-41.258C28.558,-41.166 28.61,-41.041 28.61,-40.911L28.61,-28.118C28.61,-27.988 28.558,-27.863 28.466,-27.771L0.347,0.347C0.255,0.439 0.13,0.491 -0,0.491L-20.468,0.491C-20.739,0.491 -20.959,0.271 -20.959,0L-20.959,-10.234C-20.959,-10.364 -20.907,-10.489 -20.815,-10.581L-13.14,-18.257C-13.048,-18.349 -12.923,-18.401 -12.793,-18.401L-7.625,-18.401C-7.625,-18.401 6.29,-32.316 6.29,-32.316C6.382,-32.408 6.507,-32.46 6.637,-32.46L21.497,-32.46C21.497,-32.46 21.497,-36.57 21.497,-36.57C21.497,-36.57 6.662,-36.57 6.662,-36.57C6.532,-36.57 6.407,-36.622 6.315,-36.714L-7.625,-50.654C-7.625,-50.654 -12.793,-50.654 -12.793,-50.654C-12.923,-50.654 -13.047,-50.706 -13.139,-50.797L-20.814,-58.448C-20.907,-58.541 -20.959,-58.666 -20.959,-58.796L-20.959,-69.03C-20.959,-69.301 -20.739,-69.521 -20.468,-69.521L0,-69.521ZM-0.203,-68.539L-19.977,-68.539C-19.977,-68.539 -19.977,-59 -19.977,-59C-19.977,-59 -12.59,-51.636 -12.59,-51.636C-12.59,-51.636 -7.422,-51.636 -7.422,-51.636C-7.292,-51.636 -7.167,-51.584 -7.075,-51.492L6.865,-37.552C6.865,-37.552 21.988,-37.552 21.988,-37.552C22.259,-37.552 22.479,-37.332 22.479,-37.061L22.479,-31.969C22.479,-31.698 22.259,-31.478 21.988,-31.478L6.84,-31.478C6.84,-31.478 -7.075,-17.563 -7.075,-17.563C-7.167,-17.471 -7.292,-17.419 -7.422,-17.419L-12.59,-17.419C-12.59,-17.419 -19.977,-10.031 -19.977,-10.031C-19.977,-10.031 -19.977,-0.491 -19.977,-0.491C-19.977,-0.491 -0.203,-0.491 -0.203,-0.491C-0.203,-0.491 27.628,-28.321 27.628,-28.321C27.628,-28.321 27.628,-40.708 27.628,-40.708L-0.203,-68.539Z"/>
    </g>
</svg>
